<?xml version="1.0" encoding="UTF-8" standalone="no"?>
<!DOCTYPE svg PUBLIC "-//W3C//DTD SVG 1.1//EN" "http://www.w3.org/Graphics/SVG/1.1/DTD/svg11.dtd">
<svg xmlns="http://www.w3.org/2000/svg" version="1.1" viewBox="0.00 0.00 461.00 412.00">
<g stroke-width="2.00" fill="none" stroke-linecap="butt">
<path stroke="#78787d" vector-effect="non-scaling-stroke" d="
  M 298.38 42.69
  L 288.10 45.02"
/>
<path stroke="#6d6d71" vector-effect="non-scaling-stroke" d="
  M 288.10 45.02
  L 276.36 47.49"
/>
<path stroke="#5f5f63" vector-effect="non-scaling-stroke" d="
  M 276.36 47.49
  L 263.43 50.59
  A 0.87 0.87 0.0 0 0 262.76 51.44
  L 262.75 224.54
  A 0.38 0.37 -19.5 0 0 263.36 224.83
  L 276.75 213.93"
/>
<path stroke="#6d6d71" vector-effect="non-scaling-stroke" d="
  M 276.75 213.93
  L 289.30 203.73"
/>
<path stroke="#78787d" vector-effect="non-scaling-stroke" d="
  M 289.30 203.73
  L 299.22 195.94"
/>
<path stroke="#808086" vector-effect="non-scaling-stroke" d="
  M 299.22 195.94
  L 312.02 185.69"
/>
<path stroke="#6d6d71" vector-effect="non-scaling-stroke" d="
  M 312.02 185.69
  L 326.87 173.78"
/>
<path stroke="#5f5f63" vector-effect="non-scaling-stroke" d="
  M 326.87 173.78
  L 341.52 162.34
  A 1.91 1.90 71.1 0 0 342.25 160.84
  L 342.25 70.95
  A 3.45 3.45 0.0 0 0 341.24 68.51
  L 326.58 54.05"
/>
<path stroke="#6d6d71" vector-effect="non-scaling-stroke" d="
  M 326.58 54.05
  L 312.44 39.89"
/>
<path stroke="#808086" vector-effect="non-scaling-stroke" d="
  M 312.44 39.89
  Q 312.58 39.28 310.29 39.76
  Q 303.76 41.12 298.38 42.69"
/>
<path stroke="#c6c6c3" vector-effect="non-scaling-stroke" d="
  M 312.44 39.89
  L 312.02 185.69"
/>
<path stroke="#d1d1cf" vector-effect="non-scaling-stroke" d="
  M 299.22 195.94
  Q 298.55 187.14 298.52 178.50
  Q 298.29 110.72 298.38 42.69"
/>
<path stroke="#bdbdba" vector-effect="non-scaling-stroke" d="
  M 289.30 203.73
  Q 289.13 201.56 288.79 199.56
  Q 288.44 197.51 288.36 195.40
  C 287.82 180.81 288.50 166.16 288.44 151.72
  Q 288.31 123.33 288.27 94.98
  C 288.26 88.45 288.57 81.64 288.44 75.34
  Q 288.13 60.21 288.10 45.02"
/>
<path stroke="#a5a4a0" vector-effect="non-scaling-stroke" d="
  M 326.58 54.05
  C 324.70 56.05 325.46 58.28 325.46 60.75
  Q 325.42 116.19 325.61 171.63
  Q 325.62 172.23 326.87 173.78"
/>
<path stroke="#a5a4a0" vector-effect="non-scaling-stroke" d="
  M 276.75 213.93
  L 276.36 47.49"
/>
<path stroke="#808086" vector-effect="non-scaling-stroke" d="
  M 412.00 117.63
  L 392.94 127.10"
/>
<path stroke="#6d6d71" vector-effect="non-scaling-stroke" d="
  M 392.94 127.10
  L 353.55 146.19"
/>
<path stroke="#808086" vector-effect="non-scaling-stroke" d="
  M 353.55 146.19
  L 352.78 166.14
  A 2.66 2.61 -19.5 0 1 351.84 168.06
  L 278.88 229.92"
/>
<path stroke="#78787d" vector-effect="non-scaling-stroke" d="
  M 278.88 229.92
  L 244.28 259.41
  Q 243.67 259.93 243.02 259.45
  L 199.25 226.35
  Q 198.85 226.05 198.49 226.39
  L 161.04 262.44"
/>
<path stroke="#6d6d71" vector-effect="non-scaling-stroke" d="
  M 161.04 262.44
  L 102.47 318.92"
/>
<path stroke="#5f5f63" vector-effect="non-scaling-stroke" d="
  M 102.47 318.92
  L 38.49 380.06
  Q 38.06 380.46 38.34 380.98
  L 38.50 381.29
  Q 38.73 381.72 39.14 381.44
  L 51.02 372.95"
/>
<path stroke="#6d6d71" vector-effect="non-scaling-stroke" d="
  M 51.02 372.95
  L 197.33 271.84
  A 0.93 0.92 -44.6 0 1 198.38 271.84
  L 249.37 306.93
  Q 249.93 307.32 250.39 306.81
  L 291.99 261.21"
/>
<path stroke="#5f5f63" vector-effect="non-scaling-stroke" d="
  M 291.99 261.21
  Q 296.87 256.36 302.08 250.25
  C 307.37 244.04 313.57 238.54 318.66 232.30
  C 321.60 228.70 324.91 225.53 327.82 221.88
  C 333.86 214.30 341.68 207.64 348.29 200.38
  Q 355.94 191.97 363.12 184.22
  C 364.23 183.02 365.03 181.68 365.85 180.28
  A 1.46 1.45 12.2 0 1 366.94 179.58
  Q 376.18 178.66 385.43 178.15
  Q 388.43 177.99 388.86 175.23"
/>
<path stroke="#6d6d71" vector-effect="non-scaling-stroke" d="
  M 388.86 175.23
  L 392.32 167.50"
/>
<path stroke="#5f5f63" vector-effect="non-scaling-stroke" d="
  M 392.32 167.50
  Q 402.62 144.36 412.86 121.22
  C 413.32 120.20 413.35 119.13 413.59 118.03
  Q 413.70 117.49 413.17 117.37
  Q 412.71 117.27 412.00 117.63"
/>
<path stroke="#a5a4a0" vector-effect="non-scaling-stroke" d="
  M 392.32 167.50
  Q 392.02 166.63 392.64 165.67
  Q 392.94 165.21 392.73 164.70
  Q 392.32 163.71 392.59 162.76
  Q 393.95 158.09 394.14 153.02
  Q 394.29 149.09 394.72 145.01
  Q 395.12 141.08 395.10 136.94"
/>
<path stroke="#b8b8b5" vector-effect="non-scaling-stroke" d="
  M 395.10 136.94
  L 412.85 118.80
  Q 412.88 118.78 412.88 118.74
  L 412.88 118.23
  Q 412.88 117.92 412.57 117.87
  Q 412.30 117.83 412.00 117.63"
/>
<path stroke="#c6c6c3" vector-effect="non-scaling-stroke" d="
  M 395.10 136.94
  L 390.25 141.27
  Q 388.76 142.60 388.73 140.60
  Q 388.69 138.11 389.02 134.50
  Q 389.39 130.47 392.94 127.10"
/>
<path stroke="#a5a4a0" vector-effect="non-scaling-stroke" d="
  M 388.86 175.23
  Q 386.27 175.05 385.15 172.35
  Q 383.77 169.04 378.80 158.95
  Q 377.94 157.21 376.05 156.06"
/>
<path stroke="#c6c6c3" vector-effect="non-scaling-stroke" d="
  M 376.05 156.06
  Q 365.61 150.48 353.55 146.19"
/>
<path stroke="#a5a4a0" vector-effect="non-scaling-stroke" d="
  M 291.99 261.21
  Q 283.93 259.56 275.49 260.32
  Q 272.97 260.54 272.61 257.87"
/>
<path stroke="#b0afab" vector-effect="non-scaling-stroke" d="
  M 272.61 257.87
  L 299.11 231.86"
/>
<path stroke="#b8b8b5" vector-effect="non-scaling-stroke" d="
  M 376.05 156.06
  L 299.11 231.86"
/>
<path stroke="#d1d1cf" vector-effect="non-scaling-stroke" d="
  M 299.11 231.86
  L 297.23 231.12
  Q 296.77 230.93 296.29 231.07
  Q 287.91 233.42 279.51 231.07
  Q 278.81 231.40 278.88 229.92"
/>
<path stroke="#bdbdba" vector-effect="non-scaling-stroke" d="
  M 272.61 257.87
  L 245.28 284.13
  A 1.46 1.45 -49.5 0 1 243.45 284.28
  L 200.82 254.67
  A 1.88 1.88 0.0 0 0 198.56 254.75
  Q 194.37 258.12 190.13 261.42
  Q 189.10 262.22 187.75 262.34
  C 185.22 262.55 182.93 263.66 180.47 263.57
  Q 174.38 263.34 168.36 264.29
  Q 166.50 264.59 164.65 263.91
  Q 162.81 263.25 161.04 262.44"
/>
<path stroke="#a5a4a0" vector-effect="non-scaling-stroke" d="
  M 51.02 372.95
  Q 51.06 372.60 50.16 372.38
  A 0.71 0.71 0.0 0 1 49.95 371.09
  Q 52.57 369.46 54.16 367.52
  Q 54.57 367.01 55.24 366.91
  Q 55.73 366.84 56.14 366.55
  Q 62.87 361.83 69.34 356.74
  Q 88.14 341.97 105.75 328.12
  A 1.24 1.24 0.0 0 0 105.12 325.91
  Q 103.04 325.68 100.57 326.16
  Q 100.11 326.25 99.74 326.03
  Q 99.34 325.79 99.53 325.36
  L 102.47 318.92"
/>
<path stroke="#78787d" vector-effect="non-scaling-stroke" d="
  M 193.40 128.49
  L 178.62 132.19"
/>
<path stroke="#6d6d71" vector-effect="non-scaling-stroke" d="
  M 178.62 132.19
  L 168.11 134.72"
/>
<path stroke="#5f5f63" vector-effect="non-scaling-stroke" d="
  M 168.11 134.72
  L 159.82 136.48
  A 2.14 2.13 84.0 0 0 158.13 138.57
  L 158.02 244.30
  Q 158.02 245.89 159.13 244.75
  L 168.54 235.04"
/>
<path stroke="#6d6d71" vector-effect="non-scaling-stroke" d="
  M 168.54 235.04
  L 181.31 222.59"
/>
<path stroke="#78787d" vector-effect="non-scaling-stroke" d="
  M 181.31 222.59
  L 194.74 208.92"
/>
<path stroke="#808086" vector-effect="non-scaling-stroke" d="
  M 194.74 208.92
  Q 197.01 207.61 197.36 207.86
  Q 202.11 211.29 206.95 214.87"
/>
<path stroke="#6d6d71" vector-effect="non-scaling-stroke" d="
  M 206.95 214.87
  L 226.84 228.90"
/>
<path stroke="#5f5f63" vector-effect="non-scaling-stroke" d="
  M 226.84 228.90
  L 236.64 236.25
  A 0.36 0.36 0.0 0 0 237.22 235.99
  Q 237.36 234.36 237.36 232.50
  Q 237.31 195.12 237.45 157.75
  Q 237.45 156.04 236.01 154.51
  Q 230.90 149.08 227.12 145.71"
/>
<path stroke="#6d6d71" vector-effect="non-scaling-stroke" d="
  M 227.12 145.71
  Q 222.30 140.16 215.66 133.84
  Q 215.57 133.76 212.10 129.89
  Q 210.33 127.92 207.56 125.98"
/>
<path stroke="#808086" vector-effect="non-scaling-stroke" d="
  M 207.56 125.98
  Q 201.40 125.77 193.40 128.49"
/>
<path stroke="#c6c6c3" vector-effect="non-scaling-stroke" d="
  M 207.56 125.98
  Q 207.43 166.92 207.50 207.71
  Q 207.50 209.32 207.28 211.29
  Q 207.09 213.00 206.95 214.87"
/>
<path stroke="#d1d1cf" vector-effect="non-scaling-stroke" d="
  M 194.74 208.92
  Q 194.46 170.03 194.49 131.90
  C 194.49 130.63 193.96 129.56 193.40 128.49"
/>
<path stroke="#bdbdba" vector-effect="non-scaling-stroke" d="
  M 181.31 222.59
  Q 180.71 220.36 180.64 215.00
  Q 180.11 175.35 179.94 135.70
  C 179.93 134.27 179.33 133.35 178.62 132.19"
/>
<path stroke="#a5a4a0" vector-effect="non-scaling-stroke" d="
  M 227.12 145.71
  L 226.84 228.90"
/>
<path stroke="#a5a4a0" vector-effect="non-scaling-stroke" d="
  M 168.54 235.04
  L 168.11 134.72"
/>
<path stroke="#78787d" vector-effect="non-scaling-stroke" d="
  M 96.51 210.53
  L 88.73 212.39"
/>
<path stroke="#6d6d71" vector-effect="non-scaling-stroke" d="
  M 88.73 212.39
  L 69.36 216.95"
/>
<path stroke="#5f5f63" vector-effect="non-scaling-stroke" d="
  M 69.36 216.95
  Q 66.82 217.41 65.47 218.22
  Q 65.04 218.47 65.04 218.97
  Q 64.83 278.07 64.66 334.94
  Q 64.66 335.96 64.81 336.98
  Q 64.93 337.85 65.55 337.23
  L 72.22 330.57"
/>
<path stroke="#6d6d71" vector-effect="non-scaling-stroke" d="
  M 72.22 330.57
  L 89.55 313.33"
/>
<path stroke="#78787d" vector-effect="non-scaling-stroke" d="
  M 89.55 313.33
  L 96.88 305.79"
/>
<path stroke="#808086" vector-effect="non-scaling-stroke" d="
  M 96.88 305.79
  L 114.18 289.26"
/>
<path stroke="#6d6d71" vector-effect="non-scaling-stroke" d="
  M 114.18 289.26
  L 122.83 280.62"
/>
<path stroke="#5f5f63" vector-effect="non-scaling-stroke" d="
  M 122.83 280.62
  Q 133.05 270.84 141.93 261.79
  C 142.93 260.76 143.94 260.18 144.01 258.59
  Q 144.31 252.08 144.03 245.19
  C 143.94 242.92 144.47 240.72 144.69 238.46
  Q 144.81 237.17 143.88 236.27
  L 124.16 217.12"
/>
<path stroke="#6d6d71" vector-effect="non-scaling-stroke" d="
  M 124.16 217.12
  L 114.05 206.89"
/>
<path stroke="#808086" vector-effect="non-scaling-stroke" d="
  M 114.05 206.89
  Q 113.69 206.90 112.86 206.82
  Q 112.24 206.76 111.67 206.90
  Q 104.31 208.71 96.51 210.53"
/>
<path stroke="#c6c6c3" vector-effect="non-scaling-stroke" d="
  M 114.05 206.89
  L 114.18 289.26"
/>
<path stroke="#d1d1cf" vector-effect="non-scaling-stroke" d="
  M 96.88 305.79
  Q 96.69 260.84 96.76 217.03
  Q 96.76 216.94 96.95 214.48
  Q 97.09 212.62 96.51 210.53"
/>
<path stroke="#a5a4a0" vector-effect="non-scaling-stroke" d="
  M 124.16 217.12
  Q 121.87 217.68 122.44 221.07
  Q 122.93 223.98 122.93 225.00
  Q 123.10 252.34 122.83 280.62"
/>
<path stroke="#bdbdba" vector-effect="non-scaling-stroke" d="
  M 89.55 313.33
  Q 88.33 290.49 88.65 268.75
  Q 88.67 267.26 88.67 265.75
  Q 88.71 239.26 88.73 212.39"
/>
<path stroke="#a5a4a0" vector-effect="non-scaling-stroke" d="
  M 72.22 330.57
  Q 70.70 330.33 70.68 329.00
  Q 70.51 317.00 70.77 275.25
  Q 70.99 240.13 69.36 216.95"
/>
</g>
<path fill="#272734" d="
  M 0.00 0.00
  L 461.00 0.00
  L 461.00 412.00
  L 0.00 412.00
  L 0.00 0.00
  Z
  M 298.38 42.69
  L 288.10 45.02
  L 276.36 47.49
  L 263.43 50.59
  A 0.87 0.87 0.0 0 0 262.76 51.44
  L 262.75 224.54
  A 0.38 0.37 -19.5 0 0 263.36 224.83
  L 276.75 213.93
  L 289.30 203.73
  L 299.22 195.94
  L 312.02 185.69
  L 326.87 173.78
  L 341.52 162.34
  A 1.91 1.90 71.1 0 0 342.25 160.84
  L 342.25 70.95
  A 3.45 3.45 0.0 0 0 341.24 68.51
  L 326.58 54.05
  L 312.44 39.89
  Q 312.58 39.28 310.29 39.76
  Q 303.76 41.12 298.38 42.69
  Z
  M 412.00 117.63
  L 392.94 127.10
  L 353.55 146.19
  L 352.78 166.14
  A 2.66 2.61 -19.5 0 1 351.84 168.06
  L 278.88 229.92
  L 244.28 259.41
  Q 243.67 259.93 243.02 259.45
  L 199.25 226.35
  Q 198.85 226.05 198.49 226.39
  L 161.04 262.44
  L 102.47 318.92
  L 38.49 380.06
  Q 38.06 380.46 38.34 380.98
  L 38.50 381.29
  Q 38.73 381.72 39.14 381.44
  L 51.02 372.95
  L 197.33 271.84
  A 0.93 0.92 -44.6 0 1 198.38 271.84
  L 249.37 306.93
  Q 249.93 307.32 250.39 306.81
  L 291.99 261.21
  Q 296.87 256.36 302.08 250.25
  C 307.37 244.04 313.57 238.54 318.66 232.30
  C 321.60 228.70 324.91 225.53 327.82 221.88
  C 333.86 214.30 341.68 207.64 348.29 200.38
  Q 355.94 191.97 363.12 184.22
  C 364.23 183.02 365.03 181.68 365.85 180.28
  A 1.46 1.45 12.2 0 1 366.94 179.58
  Q 376.18 178.66 385.43 178.15
  Q 388.43 177.99 388.86 175.23
  L 392.32 167.50
  Q 402.62 144.36 412.86 121.22
  C 413.32 120.20 413.35 119.13 413.59 118.03
  Q 413.70 117.49 413.17 117.37
  Q 412.71 117.27 412.00 117.63
  Z
  M 193.40 128.49
  L 178.62 132.19
  L 168.11 134.72
  L 159.82 136.48
  A 2.14 2.13 84.0 0 0 158.13 138.57
  L 158.02 244.30
  Q 158.02 245.89 159.13 244.75
  L 168.54 235.04
  L 181.31 222.59
  L 194.74 208.92
  Q 197.01 207.61 197.36 207.86
  Q 202.11 211.29 206.95 214.87
  L 226.84 228.90
  L 236.64 236.25
  A 0.36 0.36 0.0 0 0 237.22 235.99
  Q 237.36 234.36 237.36 232.50
  Q 237.31 195.12 237.45 157.75
  Q 237.45 156.04 236.01 154.51
  Q 230.90 149.08 227.12 145.71
  Q 222.30 140.16 215.66 133.84
  Q 215.57 133.76 212.10 129.89
  Q 210.33 127.92 207.56 125.98
  Q 201.40 125.77 193.40 128.49
  Z
  M 96.51 210.53
  L 88.73 212.39
  L 69.36 216.95
  Q 66.82 217.41 65.47 218.22
  Q 65.04 218.47 65.04 218.97
  Q 64.83 278.07 64.66 334.94
  Q 64.66 335.96 64.81 336.98
  Q 64.93 337.85 65.55 337.23
  L 72.22 330.57
  L 89.55 313.33
  L 96.88 305.79
  L 114.18 289.26
  L 122.83 280.62
  Q 133.05 270.84 141.93 261.79
  C 142.93 260.76 143.94 260.18 144.01 258.59
  Q 144.31 252.08 144.03 245.19
  C 143.94 242.92 144.47 240.72 144.69 238.46
  Q 144.81 237.17 143.88 236.27
  L 124.16 217.12
  L 114.05 206.89
  Q 113.69 206.90 112.86 206.82
  Q 112.24 206.76 111.67 206.90
  Q 104.31 208.71 96.51 210.53
  Z"
/>
<path fill="#d9d9d8" d="
  M 312.44 39.89
  L 312.02 185.69
  L 299.22 195.94
  Q 298.55 187.14 298.52 178.50
  Q 298.29 110.72 298.38 42.69
  Q 303.76 41.12 310.29 39.76
  Q 312.58 39.28 312.44 39.89
  Z"
/>
<path fill="#b2b2ae" d="
  M 312.44 39.89
  L 326.58 54.05
  C 324.70 56.05 325.46 58.28 325.46 60.75
  Q 325.42 116.19 325.61 171.63
  Q 325.62 172.23 326.87 173.78
  L 312.02 185.69
  L 312.44 39.89
  Z"
/>
<path fill="#c8c8c5" d="
  M 298.38 42.69
  Q 298.29 110.72 298.52 178.50
  Q 298.55 187.14 299.22 195.94
  L 289.30 203.73
  Q 289.13 201.56 288.79 199.56
  Q 288.44 197.51 288.36 195.40
  C 287.82 180.81 288.50 166.16 288.44 151.72
  Q 288.31 123.33 288.27 94.98
  C 288.26 88.45 288.57 81.64 288.44 75.34
  Q 288.13 60.21 288.10 45.02
  L 298.38 42.69
  Z"
/>
<path fill="#b2b2ae" d="
  M 288.10 45.02
  Q 288.13 60.21 288.44 75.34
  C 288.57 81.64 288.26 88.45 288.27 94.98
  Q 288.31 123.33 288.44 151.72
  C 288.50 166.16 287.82 180.81 288.36 195.40
  Q 288.44 197.51 288.79 199.56
  Q 289.13 201.56 289.30 203.73
  L 276.75 213.93
  L 276.36 47.49
  L 288.10 45.02
  Z"
/>
<path fill="#979691" d="
  M 276.36 47.49
  L 276.75 213.93
  L 263.36 224.83
  A 0.38 0.37 -19.5 0 1 262.75 224.54
  L 262.76 51.44
  A 0.87 0.87 0.0 0 1 263.43 50.59
  L 276.36 47.49
  Z"
/>
<path fill="#979691" d="
  M 326.58 54.05
  L 341.24 68.51
  A 3.45 3.45 0.0 0 1 342.25 70.95
  L 342.25 160.84
  A 1.91 1.90 71.1 0 1 341.52 162.34
  L 326.87 173.78
  Q 325.62 172.23 325.61 171.63
  Q 325.42 116.19 325.46 60.75
  C 325.46 58.28 324.70 56.05 326.58 54.05
  Z"
/>
<path fill="#979691" d="
  M 392.32 167.50
  Q 392.02 166.63 392.64 165.67
  Q 392.94 165.21 392.73 164.70
  Q 392.32 163.71 392.59 162.76
  Q 393.95 158.09 394.14 153.02
  Q 394.29 149.09 394.72 145.01
  Q 395.12 141.08 395.10 136.94
  L 412.85 118.80
  Q 412.88 118.78 412.88 118.74
  L 412.88 118.23
  Q 412.88 117.92 412.57 117.87
  Q 412.30 117.83 412.00 117.63
  Q 412.71 117.27 413.17 117.37
  Q 413.70 117.49 413.59 118.03
  C 413.35 119.13 413.32 120.20 412.86 121.22
  Q 402.62 144.36 392.32 167.50
  Z"
/>
<path fill="#d9d9d8" d="
  M 412.00 117.63
  Q 412.30 117.83 412.57 117.87
  Q 412.88 117.92 412.88 118.23
  L 412.88 118.74
  Q 412.88 118.78 412.85 118.80
  L 395.10 136.94
  L 390.25 141.27
  Q 388.76 142.60 388.73 140.60
  Q 388.69 138.11 389.02 134.50
  Q 389.39 130.47 392.94 127.10
  L 412.00 117.63
  Z"
/>
<path fill="#d9d9d8" d="
  M 207.56 125.98
  Q 207.43 166.92 207.50 207.71
  Q 207.50 209.32 207.28 211.29
  Q 207.09 213.00 206.95 214.87
  Q 202.11 211.29 197.36 207.86
  Q 197.01 207.61 194.74 208.92
  Q 194.46 170.03 194.49 131.90
  C 194.49 130.63 193.96 129.56 193.40 128.49
  Q 201.40 125.77 207.56 125.98
  Z"
/>
<path fill="#b2b2ae" d="
  M 207.56 125.98
  Q 210.33 127.92 212.10 129.89
  Q 215.57 133.76 215.66 133.84
  Q 222.30 140.16 227.12 145.71
  L 226.84 228.90
  L 206.95 214.87
  Q 207.09 213.00 207.28 211.29
  Q 207.50 209.32 207.50 207.71
  Q 207.43 166.92 207.56 125.98
  Z"
/>
<path fill="#b2b2ae" d="
  M 392.94 127.10
  Q 389.39 130.47 389.02 134.50
  Q 388.69 138.11 388.73 140.60
  Q 388.76 142.60 390.25 141.27
  L 395.10 136.94
  Q 395.12 141.08 394.72 145.01
  Q 394.29 149.09 394.14 153.02
  Q 393.95 158.09 392.59 162.76
  Q 392.32 163.71 392.73 164.70
  Q 392.94 165.21 392.64 165.67
  Q 392.02 166.63 392.32 167.50
  L 388.86 175.23
  Q 386.27 175.05 385.15 172.35
  Q 383.77 169.04 378.80 158.95
  Q 377.94 157.21 376.05 156.06
  Q 365.61 150.48 353.55 146.19
  L 392.94 127.10
  Z"
/>
<path fill="#c8c8c5" d="
  M 193.40 128.49
  C 193.96 129.56 194.49 130.63 194.49 131.90
  Q 194.46 170.03 194.74 208.92
  L 181.31 222.59
  Q 180.71 220.36 180.64 215.00
  Q 180.11 175.35 179.94 135.70
  C 179.93 134.27 179.33 133.35 178.62 132.19
  L 193.40 128.49
  Z"
/>
<path fill="#b2b2ae" d="
  M 178.62 132.19
  C 179.33 133.35 179.93 134.27 179.94 135.70
  Q 180.11 175.35 180.64 215.00
  Q 180.71 220.36 181.31 222.59
  L 168.54 235.04
  L 168.11 134.72
  L 178.62 132.19
  Z"
/>
<path fill="#979691" d="
  M 168.11 134.72
  L 168.54 235.04
  L 159.13 244.75
  Q 158.02 245.89 158.02 244.30
  L 158.13 138.57
  A 2.14 2.13 84.0 0 1 159.82 136.48
  L 168.11 134.72
  Z"
/>
<path fill="#d9d9d8" d="
  M 353.55 146.19
  Q 365.61 150.48 376.05 156.06
  L 299.11 231.86
  L 297.23 231.12
  Q 296.77 230.93 296.29 231.07
  Q 287.91 233.42 279.51 231.07
  Q 278.81 231.40 278.88 229.92
  L 351.84 168.06
  A 2.66 2.61 -19.5 0 0 352.78 166.14
  L 353.55 146.19
  Z"
/>
<path fill="#979691" d="
  M 227.12 145.71
  Q 230.90 149.08 236.01 154.51
  Q 237.45 156.04 237.45 157.75
  Q 237.31 195.12 237.36 232.50
  Q 237.36 234.36 237.22 235.99
  A 0.36 0.36 0.0 0 1 236.64 236.25
  L 226.84 228.90
  L 227.12 145.71
  Z"
/>
<path fill="#979691" d="
  M 376.05 156.06
  Q 377.94 157.21 378.80 158.95
  Q 383.77 169.04 385.15 172.35
  Q 386.27 175.05 388.86 175.23
  Q 388.43 177.99 385.43 178.15
  Q 376.18 178.66 366.94 179.58
  A 1.46 1.45 12.2 0 0 365.85 180.28
  C 365.03 181.68 364.23 183.02 363.12 184.22
  Q 355.94 191.97 348.29 200.38
  C 341.68 207.64 333.86 214.30 327.82 221.88
  C 324.91 225.53 321.60 228.70 318.66 232.30
  C 313.57 238.54 307.37 244.04 302.08 250.25
  Q 296.87 256.36 291.99 261.21
  Q 283.93 259.56 275.49 260.32
  Q 272.97 260.54 272.61 257.87
  L 299.11 231.86
  L 376.05 156.06
  Z"
/>
<path fill="#d9d9d8" d="
  M 114.05 206.89
  L 114.18 289.26
  L 96.88 305.79
  Q 96.69 260.84 96.76 217.03
  Q 96.76 216.94 96.95 214.48
  Q 97.09 212.62 96.51 210.53
  Q 104.31 208.71 111.67 206.90
  Q 112.24 206.76 112.86 206.82
  Q 113.69 206.90 114.05 206.89
  Z"
/>
<path fill="#b2b2ae" d="
  M 114.05 206.89
  L 124.16 217.12
  Q 121.87 217.68 122.44 221.07
  Q 122.93 223.98 122.93 225.00
  Q 123.10 252.34 122.83 280.62
  L 114.18 289.26
  L 114.05 206.89
  Z"
/>
<path fill="#c8c8c5" d="
  M 96.51 210.53
  Q 97.09 212.62 96.95 214.48
  Q 96.76 216.94 96.76 217.03
  Q 96.69 260.84 96.88 305.79
  L 89.55 313.33
  Q 88.33 290.49 88.65 268.75
  Q 88.67 267.26 88.67 265.75
  Q 88.71 239.26 88.73 212.39
  L 96.51 210.53
  Z"
/>
<path fill="#b2b2ae" d="
  M 88.73 212.39
  Q 88.71 239.26 88.67 265.75
  Q 88.67 267.26 88.65 268.75
  Q 88.33 290.49 89.55 313.33
  L 72.22 330.57
  Q 70.70 330.33 70.68 329.00
  Q 70.51 317.00 70.77 275.25
  Q 70.99 240.13 69.36 216.95
  L 88.73 212.39
  Z"
/>
<path fill="#979691" d="
  M 69.36 216.95
  Q 70.99 240.13 70.77 275.25
  Q 70.51 317.00 70.68 329.00
  Q 70.70 330.33 72.22 330.57
  L 65.55 337.23
  Q 64.93 337.85 64.81 336.98
  Q 64.66 335.96 64.66 334.94
  Q 64.83 278.07 65.04 218.97
  Q 65.04 218.47 65.47 218.22
  Q 66.82 217.41 69.36 216.95
  Z"
/>
<path fill="#979691" d="
  M 124.16 217.12
  L 143.88 236.27
  Q 144.81 237.17 144.69 238.46
  C 144.47 240.72 143.94 242.92 144.03 245.19
  Q 144.31 252.08 144.01 258.59
  C 143.94 260.18 142.93 260.76 141.93 261.79
  Q 133.05 270.84 122.83 280.62
  Q 123.10 252.34 122.93 225.00
  Q 122.93 223.98 122.44 221.07
  Q 121.87 217.68 124.16 217.12
  Z"
/>
<path fill="#c8c8c5" d="
  M 278.88 229.92
  Q 278.81 231.40 279.51 231.07
  Q 287.91 233.42 296.29 231.07
  Q 296.77 230.93 297.23 231.12
  L 299.11 231.86
  L 272.61 257.87
  L 245.28 284.13
  A 1.46 1.45 -49.5 0 1 243.45 284.28
  L 200.82 254.67
  A 1.88 1.88 0.0 0 0 198.56 254.75
  Q 194.37 258.12 190.13 261.42
  Q 189.10 262.22 187.75 262.34
  C 185.22 262.55 182.93 263.66 180.47 263.57
  Q 174.38 263.34 168.36 264.29
  Q 166.50 264.59 164.65 263.91
  Q 162.81 263.25 161.04 262.44
  L 198.49 226.39
  Q 198.85 226.05 199.25 226.35
  L 243.02 259.45
  Q 243.67 259.93 244.28 259.41
  L 278.88 229.92
  Z"
/>
<path fill="#b2b2ae" d="
  M 272.61 257.87
  Q 272.97 260.54 275.49 260.32
  Q 283.93 259.56 291.99 261.21
  L 250.39 306.81
  Q 249.93 307.32 249.37 306.93
  L 198.38 271.84
  A 0.93 0.92 -44.6 0 0 197.33 271.84
  L 51.02 372.95
  Q 51.06 372.60 50.16 372.38
  A 0.71 0.71 0.0 0 1 49.95 371.09
  Q 52.57 369.46 54.16 367.52
  Q 54.57 367.01 55.24 366.91
  Q 55.73 366.84 56.14 366.55
  Q 62.87 361.83 69.34 356.74
  Q 88.14 341.97 105.75 328.12
  A 1.24 1.24 0.0 0 0 105.12 325.91
  Q 103.04 325.68 100.57 326.16
  Q 100.11 326.25 99.74 326.03
  Q 99.34 325.79 99.53 325.36
  L 102.47 318.92
  L 161.04 262.44
  Q 162.81 263.25 164.65 263.91
  Q 166.50 264.59 168.36 264.29
  Q 174.38 263.34 180.47 263.57
  C 182.93 263.66 185.22 262.55 187.75 262.34
  Q 189.10 262.22 190.13 261.42
  Q 194.37 258.12 198.56 254.75
  A 1.88 1.88 0.0 0 1 200.82 254.67
  L 243.45 284.28
  A 1.46 1.45 -49.5 0 0 245.28 284.13
  L 272.61 257.87
  Z"
/>
<path fill="#979691" d="
  M 102.47 318.92
  L 99.53 325.36
  Q 99.34 325.79 99.74 326.03
  Q 100.11 326.25 100.57 326.16
  Q 103.04 325.68 105.12 325.91
  A 1.24 1.24 0.0 0 1 105.75 328.12
  Q 88.14 341.97 69.34 356.74
  Q 62.87 361.83 56.14 366.55
  Q 55.73 366.84 55.24 366.91
  Q 54.57 367.01 54.16 367.52
  Q 52.57 369.46 49.95 371.09
  A 0.71 0.71 0.0 0 0 50.16 372.38
  Q 51.06 372.60 51.02 372.95
  L 39.14 381.44
  Q 38.73 381.72 38.50 381.29
  L 38.34 380.98
  Q 38.06 380.46 38.49 380.06
  L 102.47 318.92
  Z"
/>
</svg>
