<?xml version="1.0" encoding="UTF-8" standalone="no"?>
<!DOCTYPE svg PUBLIC "-//W3C//DTD SVG 1.1//EN" "http://www.w3.org/Graphics/SVG/1.1/DTD/svg11.dtd">
<svg xmlns="http://www.w3.org/2000/svg" version="1.1" viewBox="0.00 0.00 783.00 252.00">
<g stroke-width="2.00" fill="none" stroke-linecap="butt">
<path stroke="#c2c2bf" vector-effect="non-scaling-stroke" d="
  M 706.62 106.90
  Q 706.53 65.73 706.57 25.47
  Q 706.57 22.07 706.80 18.12
  Q 707.01 14.62 706.83 10.64
  C 706.78 9.42 706.02 8.42 706.50 7.21
  Q 706.68 6.75 706.49 6.29
  Q 706.01 5.07 704.54 5.29"
/>
<path stroke="#d2d2cf" vector-effect="non-scaling-stroke" d="
  M 697.83 114.19
  Q 697.71 112.81 696.85 111.18
  Q 696.61 110.73 696.63 110.21
  Q 696.72 108.24 696.46 106.24
  C 696.21 104.34 696.90 102.62 696.89 100.68
  Q 696.84 51.78 696.92 8.87
  A 1.18 1.18 0.0 0 1 698.04 7.69
  Q 698.47 7.67 698.80 6.67"
/>
<path stroke="#babbb7" vector-effect="non-scaling-stroke" d="
  M 684.18 125.04
  Q 683.78 116.97 683.77 109.00
  C 683.77 107.97 684.11 106.94 684.11 105.99
  Q 684.15 65.20 684.10 22.58
  Q 684.10 22.49 683.86 17.44
  Q 683.69 13.75 684.45 10.04"
/>
<path stroke="#babbb7" vector-effect="non-scaling-stroke" d="
  M 574.76 186.65
  Q 575.59 186.78 575.87 186.35
  Q 576.05 186.08 576.31 185.88
  Q 576.52 185.73 576.66 185.95
  Q 576.96 186.44 577.50 186.23
  Q 578.20 185.95 578.83 186.30
  C 579.98 186.93 581.85 187.21 583.11 187.48
  Q 584.03 187.68 584.83 187.44
  Q 585.77 187.15 586.76 186.89
  Q 587.96 186.58 589.07 185.66
  Q 594.13 181.46 601.41 175.90
  Q 614.27 166.06 627.05 155.86
  A 1.37 1.37 0.0 0 1 628.69 155.81
  L 657.70 176.08
  Q 659.12 177.07 660.35 175.87
  Q 673.96 162.51 687.81 149.07
  Q 723.42 114.49 751.25 86.66
  A 0.49 0.49 0.0 0 0 751.09 85.86
  L 736.36 79.78"
/>
<path stroke="#c2c2bf" vector-effect="non-scaling-stroke" d="
  M 633.55 65.99
  Q 632.62 81.57 632.79 86.93
  Q 632.95 91.99 632.89 97.06
  Q 632.70 111.98 633.32 127.47"
/>
<path stroke="#c2c2bf" vector-effect="non-scaling-stroke" d="
  M 625.10 123.06
  Q 623.18 121.66 623.80 115.75
  Q 624.43 109.72 623.65 77.79
  Q 623.60 75.83 624.18 68.73
  Q 624.22 68.23 624.62 67.93
  L 626.05 66.86"
/>
<path stroke="#babbb7" vector-effect="non-scaling-stroke" d="
  M 567.60 122.35
  L 568.32 179.14"
/>
<path stroke="#babbb7" vector-effect="non-scaling-stroke" d="
  M 546.71 200.45
  Q 544.73 193.62 545.37 186.25
  Q 545.78 181.67 545.57 177.49
  C 545.53 176.49 545.93 175.69 545.92 174.74
  Q 545.67 153.59 546.13 132.04
  Q 546.16 130.32 546.50 128.62
  Q 546.59 128.13 547.07 127.99
  Q 548.99 127.42 549.90 126.29"
/>
</g>
<g fill="#d9d9d7">
<path d="
  M 704.54 5.29
  Q 706.01 5.07 706.49 6.29
  Q 706.68 6.75 706.50 7.21
  C 706.02 8.42 706.78 9.42 706.83 10.64
  Q 707.01 14.62 706.80 18.12
  Q 706.57 22.07 706.57 25.47
  Q 706.53 65.73 706.62 106.90
  L 697.83 114.19
  Q 697.71 112.81 696.85 111.18
  Q 696.61 110.73 696.63 110.21
  Q 696.72 108.24 696.46 106.24
  C 696.21 104.34 696.90 102.62 696.89 100.68
  Q 696.84 51.78 696.92 8.87
  A 1.18 1.18 0.0 0 1 698.04 7.69
  Q 698.47 7.67 698.80 6.67
  L 704.54 5.29
  Z"
/>
<path d="
  M 633.55 65.99
  Q 632.62 81.57 632.79 86.93
  Q 632.95 91.99 632.89 97.06
  Q 632.70 111.98 633.32 127.47
  Q 629.95 125.26 627.48 123.28
  Q 626.33 122.35 625.10 123.06
  Q 623.18 121.66 623.80 115.75
  Q 624.43 109.72 623.65 77.79
  Q 623.60 75.83 624.18 68.73
  Q 624.22 68.23 624.62 67.93
  L 626.05 66.86
  Q 630.49 65.30 633.55 65.99
  Z"
/>
<path d="
  M 397.59 143.03
  Q 407.62 142.74 412.88 133.75
  A 1.07 1.06 15.6 0 1 413.79 133.24
  L 431.92 133.29
  Q 432.93 133.29 432.70 134.27
  C 429.81 146.76 418.94 155.61 406.60 158.34
  Q 397.74 160.30 389.24 158.48
  C 366.96 153.72 356.74 134.62 360.25 112.93
  Q 361.85 103.00 369.13 94.81
  C 378.83 83.89 394.35 80.51 408.59 84.27
  C 420.55 87.43 429.57 96.38 432.86 108.21
  A 0.43 0.43 0.0 0 1 432.45 108.75
  L 413.76 108.76
  A 1.14 1.12 -15.8 0 1 412.80 108.23
  Q 405.72 97.07 392.43 99.89
  C 381.16 102.29 377.20 113.82 378.22 124.37
  C 379.26 135.08 386.59 143.35 397.59 143.03
  Z"
/>
<path d="
  M 50.79 129.93
  L 67.18 158.16
  A 0.40 0.40 0.0 0 1 66.83 158.76
  L 48.20 158.75
  A 1.88 1.87 -14.1 0 1 46.55 157.77
  Q 39.23 144.28 32.15 131.65
  C 31.18 129.92 28.96 129.97 27.31 130.51
  Q 26.78 130.68 26.78 131.23
  L 26.71 158.28
  A 0.48 0.48 0.0 0 1 26.23 158.76
  L 9.51 158.75
  A 0.75 0.74 -0.0 0 1 8.76 158.01
  L 8.67 84.35
  A 0.84 0.84 0.0 0 1 9.51 83.51
  Q 22.78 83.52 37.79 83.49
  C 40.95 83.49 44.20 83.91 47.29 84.46
  C 57.07 86.19 64.67 92.46 66.57 102.25
  C 68.20 110.61 65.67 119.54 58.88 124.58
  Q 55.43 127.14 51.14 128.89
  A 0.73 0.73 0.0 0 0 50.79 129.93
  Z
  M 26.74 99.82
  L 26.76 116.50
  A 1.05 1.05 0.0 0 0 27.82 117.55
  L 39.92 117.53
  A 8.59 8.59 0.0 0 0 48.49 108.92
  L 48.49 107.32
  A 8.59 8.59 0.0 0 0 39.88 98.75
  L 27.78 98.77
  A 1.05 1.05 0.0 0 0 26.74 99.82
  Z"
/>
<path d="
  M 96.96 99.27
  L 96.97 112.70
  A 0.51 0.50 -86.1 0 0 97.40 113.20
  Q 98.77 113.40 100.25 113.41
  Q 110.63 113.43 120.68 113.43
  A 0.85 0.84 88.2 0 1 121.52 114.23
  Q 121.85 120.68 121.43 126.68
  A 1.01 1.00 -87.6 0 1 120.42 127.62
  L 98.57 127.60
  Q 96.99 127.60 96.99 129.18
  L 97.01 143.52
  A 0.77 0.76 0.4 0 0 97.77 144.28
  L 124.05 144.38
  A 0.93 0.93 0.0 0 1 124.98 145.30
  L 125.02 158.24
  A 0.52 0.51 90.0 0 1 124.51 158.76
  L 79.81 158.76
  A 0.71 0.70 0.4 0 1 79.11 158.06
  L 78.93 85.11
  A 1.59 1.59 0.0 0 1 80.52 83.52
  L 123.98 83.47
  A 1.01 1.00 89.7 0 1 124.99 84.48
  L 125.01 96.94
  Q 125.01 98.14 123.81 98.14
  L 98.23 98.01
  Q 96.96 98.01 96.96 99.27
  Z"
/>
<path d="
  M 155.44 146.32
  L 151.32 157.92
  A 1.25 1.24 9.5 0 1 150.14 158.75
  L 133.23 158.76
  Q 132.12 158.76 132.49 157.71
  L 158.79 84.90
  A 2.08 2.07 9.7 0 1 160.73 83.53
  L 179.09 83.44
  Q 179.96 83.43 180.33 84.22
  Q 181.55 86.77 182.53 89.48
  Q 194.74 123.21 207.32 158.29
  Q 207.49 158.76 206.99 158.76
  L 189.26 158.75
  A 1.10 1.09 -9.9 0 1 188.23 158.03
  L 183.91 146.36
  Q 183.71 145.84 183.15 145.81
  Q 169.86 145.25 156.16 145.79
  A 0.80 0.79 -81.3 0 0 155.44 146.32
  Z
  M 160.81 130.27
  A 0.84 0.84 0.0 0 0 161.61 131.38
  L 177.93 131.32
  A 0.84 0.84 0.0 0 0 178.72 130.21
  L 170.48 106.02
  A 0.84 0.84 0.0 0 0 168.89 106.03
  L 160.81 130.27
  Z"
/>
<path d="
  M 235.03 144.99
  L 257.32 145.17
  A 0.91 0.90 0.3 0 1 258.22 146.07
  L 258.23 157.88
  A 0.87 0.86 -0.3 0 1 257.36 158.75
  L 216.79 158.76
  A 0.72 0.71 -90.0 0 1 216.08 158.04
  L 216.01 85.12
  Q 216.01 83.50 217.63 83.50
  L 233.23 83.47
  A 0.79 0.78 86.7 0 1 234.01 84.17
  Q 234.25 86.22 234.25 88.25
  Q 234.24 111.45 234.09 132.75
  Q 234.05 138.17 234.28 144.26
  A 0.76 0.75 -0.4 0 0 235.03 144.99
  Z"
/>
<path d="
  M 301.51 99.43
  L 301.50 158.00
  Q 301.50 158.76 300.75 158.76
  L 284.46 158.75
  Q 283.21 158.75 283.21 157.50
  Q 283.26 128.58 283.15 102.25
  Q 283.14 100.39 282.99 99.01
  Q 282.90 98.10 281.98 98.09
  L 264.24 97.97
  A 0.99 0.99 0.0 0 1 263.26 96.99
  L 263.22 84.88
  A 1.40 1.39 -0.2 0 1 264.62 83.48
  L 320.20 83.49
  A 1.32 1.32 0.0 0 1 321.52 84.82
  L 321.48 97.25
  A 0.74 0.74 0.0 0 1 320.75 97.99
  L 302.82 98.11
  Q 301.51 98.11 301.51 99.43
  Z"
/>
<rect x="330.75" y="83.50" width="18.12" height="75.26" rx="0.99"/>
<path d="
  M 462.87 115.39
  Q 462.87 116.31 463.45 115.59
  Q 475.32 100.72 486.35 85.70
  C 487.20 84.53 488.20 83.54 489.74 83.51
  Q 499.48 83.33 508.01 83.58
  A 0.73 0.72 20.1 0 1 508.56 84.75
  L 480.80 119.75
  A 1.21 1.21 0.0 0 0 480.80 121.25
  L 509.85 158.10
  A 0.41 0.41 0.0 0 1 509.53 158.76
  L 489.55 158.75
  A 2.85 2.83 -18.2 0 1 487.27 157.61
  Q 475.01 141.22 463.45 126.86
  Q 462.90 126.18 462.89 127.06
  L 462.68 157.41
  A 1.35 1.34 -89.8 0 1 461.34 158.75
  L 445.51 158.75
  Q 444.45 158.75 444.45 157.70
  Q 444.51 124.57 444.39 88.08
  Q 444.38 86.13 444.77 84.12
  Q 444.90 83.46 445.58 83.46
  L 460.71 83.53
  Q 462.05 83.54 462.38 84.84
  Q 462.68 86.02 462.69 87.23
  Q 462.79 101.21 462.87 115.39
  Z"
/>
</g>
<g fill="#aaaba6">
<path d="
  M 706.62 106.90
  Q 706.53 65.73 706.57 25.47
  Q 706.57 22.07 706.80 18.12
  Q 707.01 14.62 706.83 10.64
  C 706.78 9.42 706.02 8.42 706.50 7.21
  Q 706.68 6.75 706.49 6.29
  Q 706.01 5.07 704.54 5.29
  Q 706.12 4.58 707.48 5.97
  Q 716.59 15.19 725.14 23.80
  C 726.68 25.36 727.16 26.92 727.17 28.99
  Q 727.18 51.04 727.35 75.89
  Q 727.40 82.66 727.16 88.62
  A 3.90 3.89 71.9 0 1 725.70 91.51
  L 706.62 106.90
  Z"
/>
<path d="
  M 684.45 10.04
  Q 683.69 13.75 683.86 17.44
  Q 684.10 22.49 684.10 22.58
  Q 684.15 65.20 684.11 105.99
  C 684.11 106.94 683.77 107.97 683.77 109.00
  Q 683.78 116.97 684.18 125.04
  L 673.08 133.98
  A 0.34 0.32 -20.3 0 1 672.54 133.75
  L 672.48 14.23
  Q 672.48 12.97 673.70 12.67
  L 684.45 10.04
  Z"
/>
<path d="
  M 574.76 186.65
  Q 575.59 186.78 575.87 186.35
  Q 576.05 186.08 576.31 185.88
  Q 576.52 185.73 576.66 185.95
  Q 576.96 186.44 577.50 186.23
  Q 578.20 185.95 578.83 186.30
  C 579.98 186.93 581.85 187.21 583.11 187.48
  Q 584.03 187.68 584.83 187.44
  Q 585.77 187.15 586.76 186.89
  Q 587.96 186.58 589.07 185.66
  Q 594.13 181.46 601.41 175.90
  Q 614.27 166.06 627.05 155.86
  A 1.37 1.37 0.0 0 1 628.69 155.81
  L 657.70 176.08
  Q 659.12 177.07 660.35 175.87
  Q 673.96 162.51 687.81 149.07
  Q 723.42 114.49 751.25 86.66
  A 0.49 0.49 0.0 0 0 751.09 85.86
  L 736.36 79.78
  L 776.57 60.05
  Q 777.83 59.44 777.26 60.72
  L 759.75 100.42
  A 2.22 2.21 9.5 0 1 757.91 101.73
  L 745.29 102.86
  Q 744.49 102.93 743.95 103.52
  L 663.53 191.58
  Q 663.12 192.03 662.59 191.73
  Q 661.36 191.04 659.93 190.06
  Q 632.05 170.84 629.13 168.85
  C 626.09 166.78 625.16 168.09 622.28 170.07
  Q 569.66 206.15 516.12 243.71
  Q 515.16 244.39 515.89 243.47
  Q 516.94 242.14 518.58 240.58
  Q 546.84 213.79 574.76 186.65
  Z"
/>
<path d="
  M 633.55 65.99
  Q 643.25 75.66 652.55 85.22
  Q 654.00 86.70 654.00 88.50
  Q 653.99 114.66 653.96 140.12
  Q 653.96 141.99 652.43 140.91
  L 633.32 127.47
  Q 632.70 111.98 632.89 97.06
  Q 632.95 91.99 632.79 86.93
  Q 632.62 81.57 633.55 65.99
  Z"
/>
<path d="
  M 626.05 66.86
  L 624.62 67.93
  Q 624.22 68.23 624.18 68.73
  Q 623.60 75.83 623.65 77.79
  Q 624.43 109.72 623.80 115.75
  Q 623.18 121.66 625.10 123.06
  L 600.09 147.96
  Q 599.12 148.93 599.12 147.56
  L 599.08 75.10
  A 2.37 2.37 0.0 0 1 600.91 72.79
  L 626.05 66.86
  Z"
/>
<path d="
  M 567.60 122.35
  L 587.82 142.67
  Q 588.61 143.46 588.59 144.58
  L 588.32 158.04
  Q 588.30 159.19 587.49 160.00
  L 568.32 179.14
  L 567.60 122.35
  Z"
/>
<path d="
  M 549.90 126.29
  Q 548.99 127.42 547.07 127.99
  Q 546.59 128.13 546.50 128.62
  Q 546.16 130.32 546.13 132.04
  Q 545.67 153.59 545.92 174.74
  C 545.93 175.69 545.53 176.49 545.57 177.49
  Q 545.78 181.67 545.37 186.25
  Q 544.73 193.62 546.71 200.45
  L 534.25 212.78
  A 0.34 0.34 0.0 0 1 533.66 212.54
  Q 534.02 173.68 533.65 136.25
  Q 533.62 133.45 533.93 131.23
  A 1.80 1.79 -2.6 0 1 535.30 129.73
  L 549.90 126.29
  Z"
/>
</g>
<g fill="#cacbc7">
<path d="
  M 698.80 6.67
  Q 698.47 7.67 698.04 7.69
  A 1.18 1.18 0.0 0 0 696.92 8.87
  Q 696.84 51.78 696.89 100.68
  C 696.90 102.62 696.21 104.34 696.46 106.24
  Q 696.72 108.24 696.63 110.21
  Q 696.61 110.73 696.85 111.18
  Q 697.71 112.81 697.83 114.19
  L 684.18 125.04
  Q 683.78 116.97 683.77 109.00
  C 683.77 107.97 684.11 106.94 684.11 105.99
  Q 684.15 65.20 684.10 22.58
  Q 684.10 22.49 683.86 17.44
  Q 683.69 13.75 684.45 10.04
  L 698.80 6.67
  Z"
/>
<path d="
  M 736.36 79.78
  L 751.09 85.86
  A 0.49 0.49 0.0 0 1 751.25 86.66
  Q 723.42 114.49 687.81 149.07
  Q 673.96 162.51 660.35 175.87
  Q 659.12 177.07 657.70 176.08
  L 628.69 155.81
  A 1.37 1.37 0.0 0 0 627.05 155.86
  Q 614.27 166.06 601.41 175.90
  Q 594.13 181.46 589.07 185.66
  Q 587.96 186.58 586.76 186.89
  Q 585.77 187.15 584.83 187.44
  Q 584.03 187.68 583.11 187.48
  C 581.85 187.21 579.98 186.93 578.83 186.30
  Q 578.20 185.95 577.50 186.23
  Q 576.96 186.44 576.66 185.95
  Q 576.52 185.73 576.31 185.88
  Q 576.05 186.08 575.87 186.35
  Q 575.59 186.78 574.76 186.65
  L 626.73 136.49
  A 0.65 0.64 -48.6 0 1 627.57 136.43
  L 657.59 158.95
  A 1.69 1.68 -46.5 0 0 659.69 158.89
  L 735.12 94.71
  A 1.24 1.21 -19.2 0 0 735.54 93.86
  L 736.36 79.78
  Z"
/>
<path d="
  M 567.60 122.35
  L 568.32 179.14
  L 546.71 200.45
  Q 544.73 193.62 545.37 186.25
  Q 545.78 181.67 545.57 177.49
  C 545.53 176.49 545.93 175.69 545.92 174.74
  Q 545.67 153.59 546.13 132.04
  Q 546.16 130.32 546.50 128.62
  Q 546.59 128.13 547.07 127.99
  Q 548.99 127.42 549.90 126.29
  L 567.60 122.35
  Z"
/>
</g>
</svg>
